<svg width="24" height="24" viewBox="0 0 24 24" fill="none" xmlns="http://www.w3.org/2000/svg">
<path fill-rule="evenodd" clip-rule="evenodd" d="M6.293 6.293C6.48053 6.10553 6.73484 6.00021 7 6.00021C7.26516 6.00021 7.51947 6.10553 7.707 6.293L12 10.586L16.293 6.293C16.3852 6.19749 16.4956 6.12131 16.6176 6.0689C16.7396 6.01649 16.8708 5.9889 17.0036 5.98775C17.1364 5.9866 17.2681 6.0119 17.391 6.06218C17.5139 6.11246 17.6255 6.18671 17.7194 6.2806C17.8133 6.3745 17.8875 6.48615 17.9378 6.60905C17.9881 6.73194 18.0134 6.86362 18.0123 6.9964C18.0111 7.12918 17.9835 7.2604 17.9311 7.3824C17.8787 7.50441 17.8025 7.61475 17.707 7.707L13.414 12L17.707 16.293C17.8892 16.4816 17.99 16.7342 17.9877 16.9964C17.9854 17.2586 17.8802 17.5094 17.6948 17.6948C17.5094 17.8802 17.2586 17.9854 16.9964 17.9877C16.7342 17.99 16.4816 17.8892 16.293 17.707L12 13.414L7.707 17.707C7.5184 17.8892 7.2658 17.99 7.0036 17.9877C6.7414 17.9854 6.49059 17.8802 6.30518 17.6948C6.11977 17.5094 6.0146 17.2586 6.01233 16.9964C6.01005 16.7342 6.11084 16.4816 6.293 16.293L10.586 12L6.293 7.707C6.10553 7.51947 6.00021 7.26516 6.00021 7C6.00021 6.73484 6.10553 6.48053 6.293 6.293Z" fill="#B0BABF"/>
</svg>
